<svg width="30" height="20" viewBox="0 0 30 20" fill="none" xmlns="http://www.w3.org/2000/svg">
    <g filter="url(#filter0_d_29_4)">
        <path d="M21.4992 14.6298L25.0913 11.1842C25.6746 10.5979 26 9.81859 26 9.00816C26 8.19773 25.6746 7.41843 25.0913 6.83213L21.4992 3.38652C21.2414 3.13912 20.8917 3.00008 20.5271 3C20.1624 2.99992 19.8126 3.1388 19.5547 3.38608C19.2968 3.63337 19.1519 3.96881 19.1518 4.31861C19.1517 4.66841 19.2965 5.00391 19.5543 5.25132L22.1023 7.69638L5.37486 7.71661C5.01023 7.71661 4.66052 7.85555 4.40269 8.10288C4.14485 8.3502 4 8.68564 4 9.03541C4 9.38518 4.14485 9.72063 4.40269 9.96795C4.66052 10.2153 5.01023 10.3542 5.37486 10.3542L22.0849 10.334L19.5543 12.765C19.3038 13.0137 19.1652 13.3469 19.1684 13.6927C19.1715 14.0384 19.3161 14.3692 19.571 14.6137C19.8259 14.8582 20.1707 14.9969 20.5312 15C20.8917 15.003 21.239 14.87 21.4983 14.6298H21.4992Z" fill="#F8FCFF"/>
    </g>
    <defs>
    <filter id="filter0_d_29_4" x="0" y="0" width="30" height="20" filterUnits="userSpaceOnUse" color-interpolation-filters="sRGB">
        <feFlood flood-opacity="0" result="BackgroundImageFix"/>
        <feColorMatrix in="SourceAlpha" type="matrix" values="0 0 0 0 0 0 0 0 0 0 0 0 0 0 0 0 0 0 127 0" result="hardAlpha"/>
        <feOffset dy="1"/>
        <feGaussianBlur stdDeviation="2"/>
        <feComposite in2="hardAlpha" operator="out"/>
        <feColorMatrix type="matrix" values="0 0 0 0 0 0 0 0 0 0 0 0 0 0 0 0 0 0 0.25 0"/>
        <feBlend mode="normal" in2="BackgroundImageFix" result="effect1_dropShadow_29_4"/>
        <feBlend mode="normal" in="SourceGraphic" in2="effect1_dropShadow_29_4" result="shape"/>
    </filter>
    </defs>
</svg>
