<svg width="55" height="53" viewBox="0 0 55 53" fill="none" xmlns="http://www.w3.org/2000/svg">
    <path d="M27.5 9.64386L25.0362 7.0938C19.2462 1.10125 8.64238 3.16986 4.81373 10.6989C3.01309 14.2398 2.6082 19.351 5.89288 25.876C9.05635 32.1604 15.6326 39.683 27.5 47.88C39.3674 39.683 45.9437 32.1604 49.1071 25.876C52.3918 19.351 51.9869 14.2398 50.1863 10.6989C46.3576 3.16986 35.7538 1.10125 29.9638 7.0938L27.5 9.64386ZM27.5 52.0524C-25.2076 16.9832 11.2707 -10.3937 26.8961 4.08847C27.1011 4.27845 27.3025 4.47563 27.5 4.68009C27.6975 4.47564 27.8989 4.27847 28.1039 4.0885C43.7292 -10.3938 80.2077 16.9832 27.5 52.0524Z" fill="white"/>
</svg>
