<svg width="55" height="56" viewBox="0 0 55 56" fill="none" xmlns="http://www.w3.org/2000/svg">
    <path fill-rule="evenodd" clip-rule="evenodd" d="M35.5903 21.3655C36.2616 22.0414 36.2616 23.1372 35.5903 23.8131L25.2778 34.1972C24.9555 34.5218 24.5183 34.7041 24.0625 34.7041C23.6067 34.7041 23.1695 34.5218 22.8472 34.1972L17.6909 29.0052C17.0197 28.3293 17.0197 27.2335 17.6909 26.5576C18.3621 25.8817 19.4504 25.8817 20.1216 26.5576L24.0625 30.5259L33.1597 21.3655C33.8309 20.6897 34.9191 20.6897 35.5903 21.3655Z" fill="white"/>
    <path d="M35.3132 8.7876L32.1472 5.52272L34.6066 3.10449L36.7442 5.30882L39.8037 5.27212C45.3816 5.20522 49.9204 9.77556 49.854 15.3922L49.8175 18.4729L52.0066 20.6253C55.9978 24.5496 55.9978 31.013 52.0066 34.9373L49.8175 37.0897L49.854 40.1704C49.9204 45.7871 45.3816 50.3574 39.8037 50.2905L36.7442 50.2538L34.6066 52.4581C30.7094 56.477 24.2906 56.477 20.3934 52.4581L18.2558 50.2538L15.1963 50.2905C9.61843 50.3574 5.07961 45.7871 5.14605 40.1704L5.1825 37.0897L2.99337 34.9373C-0.99779 31.013 -0.997789 24.5496 2.99337 20.6253L5.1825 18.4729L5.14605 15.3922C5.07961 9.77555 9.61843 5.20522 15.1963 5.27212L18.2558 5.30882L20.3934 3.10449C24.2906 -0.914387 30.7094 -0.914386 34.6066 3.10449L32.1472 5.52272C29.5987 2.8947 25.4013 2.8947 22.8528 5.52272L19.6868 8.7876L15.1554 8.73325C11.5079 8.6895 8.53986 11.6781 8.58331 15.351L8.63728 19.9139L5.39492 23.1019C2.78503 25.668 2.78503 29.8946 5.39493 32.4607L8.63728 35.6488L8.58331 40.2116C8.53986 43.8845 11.5079 46.8731 15.1554 46.8294L19.6868 46.775L22.8528 50.0399C25.4013 52.6679 29.5987 52.6679 32.1472 50.0399L35.3132 46.775L39.8446 46.8294C43.4921 46.8731 46.4601 43.8845 46.4167 40.2116L46.3627 35.6488L49.6051 32.4607C52.215 29.8946 52.215 25.668 49.6051 23.1019L46.3627 19.9139L46.4167 15.351C46.4601 11.6781 43.4921 8.6895 39.8446 8.73325L35.3132 8.7876Z" fill="white"/>
</svg>
