<svg width="45" height="56" viewBox="0 0 45 56" fill="none" xmlns="http://www.w3.org/2000/svg">
    <path d="M29.0796 3.08198L22.5 0.090332L15.9204 3.08198L8.59423 4.05671L5.27432 9.87203L0 14.4408L1.20789 20.8586L0 27.2763L5.27432 31.8451L8.59423 37.6604L15.9204 38.6351L22.5 41.6268L29.0796 38.6351L36.4058 37.6604L39.7257 31.8451L45 27.2763L43.7921 20.8586L45 14.4408L39.7257 9.87203L36.4058 4.05671L29.0796 3.08198ZM33.7957 7.21035L36.4925 11.9342L40.7768 15.6454L39.7957 20.8586L40.7768 26.0717L36.4925 29.783L33.7957 34.5068L27.8447 35.2986L22.5 37.7287L17.1553 35.2986L11.2043 34.5068L8.50751 29.783L4.22316 26.0717L5.20433 20.8586L4.22316 15.6454L8.50751 11.9342L11.2043 7.21035L17.1553 6.41857L22.5 3.98844L27.8447 6.41857L33.7957 7.21035Z" fill="white"/>
    <path d="M6.72807 40.9131V55.4723L22.5 52.0109L38.2719 55.4723V40.9131L30.3145 41.9718L22.5 45.525L14.6854 41.9718L6.72807 40.9131Z" fill="white"/>
</svg>
