<svg width="60" height="52" viewBox="0 0 60 52" fill="none" xmlns="http://www.w3.org/2000/svg">
    <path d="M0 6.75C0 3.02208 3.35786 0 7.5 0H52.5C56.6421 0 60 3.02208 60 6.75V33.75C60 37.4779 56.6421 40.5 52.5 40.5H43.125C41.9447 40.5 40.8332 41.0001 40.125 41.85L33 50.4C31.5 52.2 28.5 52.2 27 50.4L19.875 41.85C19.1668 41.0001 18.0553 40.5 16.875 40.5H7.5C3.35786 40.5 0 37.4779 0 33.75V6.75ZM26.9764 16.0866C26.73 15.7553 26.4446 15.4477 26.1256 15.1689C25.5942 14.6891 25.0009 14.3092 24.3682 14.0725L24.3386 14.0616C23.4816 13.7018 22.5195 13.5 21.5029 13.5C17.9114 13.5 15 16.0184 15 19.125C15 22.2316 17.9114 24.75 21.5029 24.75C22.7875 24.75 23.9851 24.4278 24.9936 23.8717C24.481 25.1835 23.5313 26.5834 21.959 27.992C21.3354 28.5507 21.3534 29.4409 21.9994 29.9804C22.6453 30.5199 23.6745 30.5042 24.2981 29.9455C29.3034 25.4613 29.4354 20.6369 27.8306 17.4399C27.5901 16.9608 27.3026 16.5043 26.9764 16.0866ZM41.2506 23.8717C40.738 25.1835 39.7883 26.5834 38.216 27.992C37.5924 28.5507 37.6104 29.4409 38.2563 29.9804C38.9023 30.5199 39.9314 30.5042 40.5551 29.9455C45.5604 25.4613 45.6923 20.6369 44.0875 17.4399C43.847 16.9608 43.5595 16.5043 43.2333 16.0866C42.987 15.7553 42.7016 15.4477 42.3826 15.1689C41.8512 14.6891 41.2579 14.3092 40.6252 14.0725L40.5956 14.0616C39.7385 13.7018 38.7764 13.5 37.7598 13.5C34.1684 13.5 31.257 16.0184 31.257 19.125C31.257 22.2316 34.1684 24.75 37.7598 24.75C39.0445 24.75 40.2421 24.4278 41.2506 23.8717Z" fill="#0A6463"/>
</svg>
